<svg width="434" height="96" viewBox="0 0 434 96" fill="none" xmlns="http://www.w3.org/2000/svg">
<path d="M95.3487 18.861H4.6518V46.7271H95.3487V18.861Z" fill="#EBEBEB"/>
<path d="M95.3487 46.7276H4.6518V91.3624H95.3487V46.7276Z" fill="#F6A729"/>
<path d="M92.9412 14.9857H76.7933V7.05878C76.7933 2.96793 74.6535 0 71.7055 0H29.835C26.887 0 24.7473 2.97009 24.7473 7.05878V14.9857H7.05878C5.18748 14.9882 3.39354 15.7328 2.07031 17.056C0.747086 18.3792 0.002566 20.1732 0 22.0445V88.2878C0.00270818 90.1592 0.747264 91.953 2.07046 93.2764C3.39365 94.5992 5.18752 95.3439 7.05878 95.3466H92.9412C94.8126 95.3439 96.6064 94.5992 97.9298 93.2764C99.2526 91.953 99.9973 90.1592 100 88.2878V22.0466C99.9978 20.1749 99.2537 18.3805 97.9303 17.0567C96.6069 15.7331 94.8131 14.9882 92.9412 14.9857ZM31.1665 7.05878C31.166 6.84411 31.1809 6.6296 31.2112 6.41703H70.3309C70.3611 6.6296 70.3762 6.84411 70.3757 7.05878V14.9857H31.1665V7.05878ZM93.583 88.2878C93.583 88.4581 93.5151 88.6213 93.3949 88.7415C93.2747 88.8616 93.1115 88.9295 92.9412 88.9295H7.05878C6.88862 88.9295 6.72546 88.8616 6.60514 88.7415C6.48481 88.6213 6.41719 88.4581 6.41703 88.2878V50.0916H36.5209V52.0169C36.5209 52.2193 36.5606 52.4197 36.6381 52.6066C36.7154 52.7936 36.8289 52.9634 36.9719 53.1066C37.115 53.2497 37.2849 53.3632 37.4718 53.4406C37.6587 53.5181 37.8591 53.558 38.0615 53.558H63.4791C63.6817 53.5581 63.8821 53.5182 64.0691 53.4408C64.2561 53.3634 64.4258 53.2499 64.5691 53.1068C64.7119 52.9637 64.8256 52.7937 64.9032 52.6067C64.9803 52.4197 65.0201 52.2193 65.0201 52.0169V50.0916H93.583V88.2878ZM93.583 43.6719H6.41703V22.0466C6.41719 21.8764 6.48481 21.7133 6.60514 21.593C6.72546 21.4727 6.88862 21.405 7.05878 21.4049H92.9412C93.1115 21.405 93.2747 21.4727 93.3949 21.593C93.5151 21.7133 93.583 21.8764 93.583 22.0466V43.6719Z" fill="#2A3255"/>
<path d="M159.344 30.544L146.72 64H141.68L129.056 30.544H133.712L144.224 59.392L154.736 30.544H159.344ZM188.134 49.84C188.134 50.672 188.086 51.552 187.99 52.48H166.966C167.126 55.072 168.006 57.104 169.606 58.576C171.238 60.016 173.206 60.736 175.51 60.736C177.398 60.736 178.966 60.304 180.214 59.44C181.494 58.544 182.39 57.36 182.902 55.888H187.606C186.902 58.416 185.494 60.48 183.382 62.08C181.27 63.648 178.646 64.432 175.51 64.432C173.014 64.432 170.774 63.872 168.79 62.752C166.838 61.632 165.302 60.048 164.182 58C163.062 55.92 162.502 53.52 162.502 50.8C162.502 48.08 163.046 45.696 164.134 43.648C165.222 41.6 166.742 40.032 168.694 38.944C170.678 37.824 172.95 37.264 175.51 37.264C178.006 37.264 180.214 37.808 182.134 38.896C184.054 39.984 185.526 41.488 186.55 43.408C187.606 45.296 188.134 47.44 188.134 49.84ZM183.622 48.928C183.622 47.264 183.254 45.84 182.518 44.656C181.782 43.44 180.774 42.528 179.494 41.92C178.246 41.28 176.854 40.96 175.318 40.96C173.11 40.96 171.222 41.664 169.654 43.072C168.118 44.48 167.238 46.432 167.014 48.928H183.622ZM207.627 64L201.387 54.208L195.387 64H190.827L199.323 50.944L190.827 37.696H195.771L202.011 47.44L207.963 37.696H212.523L204.075 50.704L212.571 64H207.627ZM215.236 47.248C215.236 43.984 215.972 41.056 217.444 38.464C218.916 35.84 220.916 33.792 223.444 32.32C226.004 30.848 228.836 30.112 231.94 30.112C235.588 30.112 238.772 30.992 241.492 32.752C244.212 34.512 246.196 37.008 247.444 40.24H242.212C241.284 38.224 239.94 36.672 238.18 35.584C236.452 34.496 234.372 33.952 231.94 33.952C229.604 33.952 227.508 34.496 225.652 35.584C223.796 36.672 222.34 38.224 221.284 40.24C220.228 42.224 219.7 44.56 219.7 47.248C219.7 49.904 220.228 52.24 221.284 54.256C222.34 56.24 223.796 57.776 225.652 58.864C227.508 59.952 229.604 60.496 231.94 60.496C234.372 60.496 236.452 59.968 238.18 58.912C239.94 57.824 241.284 56.272 242.212 54.256H247.444C246.196 57.456 244.212 59.936 241.492 61.696C238.772 63.424 235.588 64.288 231.94 64.288C228.836 64.288 226.004 63.568 223.444 62.128C220.916 60.656 218.916 58.624 217.444 56.032C215.972 53.44 215.236 50.512 215.236 47.248ZM265.418 64.432C262.954 64.432 260.714 63.872 258.698 62.752C256.714 61.632 255.146 60.048 253.994 58C252.874 55.92 252.314 53.52 252.314 50.8C252.314 48.112 252.89 45.744 254.042 43.696C255.226 41.616 256.826 40.032 258.842 38.944C260.858 37.824 263.114 37.264 265.61 37.264C268.106 37.264 270.362 37.824 272.378 38.944C274.394 40.032 275.978 41.6 277.13 43.648C278.314 45.696 278.906 48.08 278.906 50.8C278.906 53.52 278.298 55.92 277.082 58C275.898 60.048 274.282 61.632 272.234 62.752C270.186 63.872 267.914 64.432 265.418 64.432ZM265.418 60.592C266.986 60.592 268.458 60.224 269.834 59.488C271.21 58.752 272.314 57.648 273.146 56.176C274.01 54.704 274.442 52.912 274.442 50.8C274.442 48.688 274.026 46.896 273.194 45.424C272.362 43.952 271.274 42.864 269.93 42.16C268.586 41.424 267.13 41.056 265.562 41.056C263.962 41.056 262.49 41.424 261.146 42.16C259.834 42.864 258.778 43.952 257.978 45.424C257.178 46.896 256.778 48.688 256.778 50.8C256.778 52.944 257.162 54.752 257.93 56.224C258.73 57.696 259.786 58.8 261.098 59.536C262.41 60.24 263.85 60.592 265.418 60.592ZM297.465 37.216C300.665 37.216 303.257 38.192 305.241 40.144C307.225 42.064 308.217 44.848 308.217 48.496V64H303.897V49.12C303.897 46.496 303.241 44.496 301.929 43.12C300.617 41.712 298.825 41.008 296.553 41.008C294.249 41.008 292.409 41.728 291.033 43.168C289.689 44.608 289.017 46.704 289.017 49.456V64H284.649V37.696H289.017V41.44C289.881 40.096 291.049 39.056 292.521 38.32C294.025 37.584 295.673 37.216 297.465 37.216ZM320.68 41.296V56.8C320.68 58.08 320.952 58.992 321.496 59.536C322.04 60.048 322.984 60.304 324.328 60.304H327.544V64H323.608C321.176 64 319.352 63.44 318.136 62.32C316.92 61.2 316.312 59.36 316.312 56.8V41.296H312.904V37.696H316.312V31.072H320.68V37.696H327.544V41.296H320.68ZM331.205 50.752C331.205 48.064 331.749 45.712 332.837 43.696C333.925 41.648 335.413 40.064 337.301 38.944C339.221 37.824 341.349 37.264 343.685 37.264C345.989 37.264 347.989 37.76 349.685 38.752C351.381 39.744 352.645 40.992 353.477 42.496V37.696H357.893V64H353.477V59.104C352.613 60.64 351.317 61.92 349.589 62.944C347.893 63.936 345.909 64.432 343.637 64.432C341.301 64.432 339.189 63.856 337.301 62.704C335.413 61.552 333.925 59.936 332.837 57.856C331.749 55.776 331.205 53.408 331.205 50.752ZM353.477 50.8C353.477 48.816 353.077 47.088 352.277 45.616C351.477 44.144 350.389 43.024 349.013 42.256C347.669 41.456 346.181 41.056 344.549 41.056C342.917 41.056 341.429 41.44 340.085 42.208C338.741 42.976 337.669 44.096 336.869 45.568C336.069 47.04 335.669 48.768 335.669 50.752C335.669 52.768 336.069 54.528 336.869 56.032C337.669 57.504 338.741 58.64 340.085 59.44C341.429 60.208 342.917 60.592 344.549 60.592C346.181 60.592 347.669 60.208 349.013 59.44C350.389 58.64 351.477 57.504 352.277 56.032C353.077 54.528 353.477 52.784 353.477 50.8ZM363.642 50.8C363.642 48.08 364.186 45.712 365.274 43.696C366.362 41.648 367.866 40.064 369.786 38.944C371.738 37.824 373.962 37.264 376.458 37.264C379.69 37.264 382.346 38.048 384.426 39.616C386.538 41.184 387.93 43.36 388.602 46.144H383.898C383.45 44.544 382.57 43.28 381.258 42.352C379.978 41.424 378.378 40.96 376.458 40.96C373.962 40.96 371.946 41.824 370.41 43.552C368.874 45.248 368.106 47.664 368.106 50.8C368.106 53.968 368.874 56.416 370.41 58.144C371.946 59.872 373.962 60.736 376.458 60.736C378.378 60.736 379.978 60.288 381.258 59.392C382.538 58.496 383.418 57.216 383.898 55.552H388.602C387.898 58.24 386.49 60.4 384.378 62.032C382.266 63.632 379.626 64.432 376.458 64.432C373.962 64.432 371.738 63.872 369.786 62.752C367.866 61.632 366.362 60.048 365.274 58C364.186 55.952 363.642 53.552 363.642 50.8ZM399.758 41.296V56.8C399.758 58.08 400.03 58.992 400.574 59.536C401.118 60.048 402.062 60.304 403.406 60.304H406.622V64H402.686C400.254 64 398.43 63.44 397.214 62.32C395.998 61.2 395.39 59.36 395.39 56.8V41.296H391.982V37.696H395.39V31.072H399.758V37.696H406.622V41.296H399.758ZM421.227 64.432C419.211 64.432 417.403 64.096 415.803 63.424C414.203 62.72 412.939 61.76 412.011 60.544C411.083 59.296 410.571 57.872 410.475 56.272H414.987C415.115 57.584 415.723 58.656 416.811 59.488C417.931 60.32 419.387 60.736 421.179 60.736C422.843 60.736 424.155 60.368 425.115 59.632C426.075 58.896 426.555 57.968 426.555 56.848C426.555 55.696 426.043 54.848 425.019 54.304C423.995 53.728 422.411 53.168 420.267 52.624C418.315 52.112 416.715 51.6 415.467 51.088C414.251 50.544 413.195 49.76 412.299 48.736C411.435 47.68 411.003 46.304 411.003 44.608C411.003 43.264 411.403 42.032 412.203 40.912C413.003 39.792 414.139 38.912 415.611 38.272C417.083 37.6 418.763 37.264 420.651 37.264C423.563 37.264 425.915 38 427.707 39.472C429.499 40.944 430.459 42.96 430.587 45.52H426.219C426.123 44.144 425.563 43.04 424.539 42.208C423.547 41.376 422.203 40.96 420.507 40.96C418.939 40.96 417.691 41.296 416.763 41.968C415.835 42.64 415.371 43.52 415.371 44.608C415.371 45.472 415.643 46.192 416.187 46.768C416.763 47.312 417.467 47.76 418.299 48.112C419.163 48.432 420.347 48.8 421.851 49.216C423.739 49.728 425.275 50.24 426.459 50.752C427.643 51.232 428.651 51.968 429.483 52.96C430.347 53.952 430.795 55.248 430.827 56.848C430.827 58.288 430.427 59.584 429.627 60.736C428.827 61.888 427.691 62.8 426.219 63.472C424.779 64.112 423.115 64.432 421.227 64.432Z" fill="#2A3255"/>
</svg>
